<svg id="Component_43_10" data-name="Component 43 – 10" xmlns="http://www.w3.org/2000/svg" width="32" height="32" viewBox="0 0 32 32">
  <g id="Group_67" data-name="Group 67" transform="translate(594 -213) rotate(90)">
    <g id="Group_87" data-name="Group 87" transform="translate(213 562)">
      <g id="Path_87" data-name="Path 87" fill="#fff">
        <path d="M 16 31 C 11.9933500289917 31 8.226519584655762 29.43972969055176 5.393400192260742 26.60659980773926 C 2.560270071029663 23.77347946166992 1 20.00665092468262 1 16 C 1 11.9933500289917 2.560270071029663 8.226519584655762 5.393400192260742 5.393400192260742 C 8.226519584655762 2.560270071029663 11.9933500289917 1 16 1 C 20.00665092468262 1 23.77347946166992 2.560270071029663 26.60659980773926 5.393400192260742 C 29.43972969055176 8.226519584655762 31 11.9933500289917 31 16 C 31 20.00665092468262 29.43972969055176 23.77347946166992 26.60659980773926 26.60659980773926 C 23.77347946166992 29.43972969055176 20.00665092468262 31 16 31 Z" stroke="none"/>
        <path d="M 16 2 C 12.26045989990234 2 8.744749069213867 3.456249237060547 6.100500106811523 6.100500106811523 C 3.456249237060547 8.744749069213867 2 12.26045989990234 2 16 C 2 19.73954010009766 3.456249237060547 23.2552490234375 6.100500106811523 25.89949989318848 C 8.744749069213867 28.54375076293945 12.26045989990234 30 16 30 C 19.73954010009766 30 23.2552490234375 28.54375076293945 25.89949989318848 25.89949989318848 C 28.54375076293945 23.2552490234375 30 19.73954010009766 30 16 C 30 12.26045989990234 28.54375076293945 8.744749069213867 25.89949989318848 6.100500106811523 C 23.2552490234375 3.456249237060547 19.73954010009766 2 16 2 M 16 0 C 24.8365592956543 0 32 7.163440704345703 32 16 C 32 24.8365592956543 24.8365592956543 32 16 32 C 7.163440704345703 32 0 24.8365592956543 0 16 C 0 7.163440704345703 7.163440704345703 0 16 0 Z" stroke="none" fill="#e10174"/>
      </g>
    </g>
    <path id="iconcollapse-down" d="M20.65,7.4a.725.725,0,0,0-1.05,0L12,15,4.4,7.4A.742.742,0,0,0,3.35,8.45L12,17.1l8.65-8.65A.724.724,0,0,0,20.65,7.4Z" transform="translate(217.825 590.125) rotate(-90)" fill="#e10174"/>
  </g>
</svg>
