<svg xmlns="http://www.w3.org/2000/svg" xmlns:xlink="http://www.w3.org/1999/xlink" width="384" height="477.756" viewBox="0 0 384 477.756">
  <defs>
    <clipPath id="clip-path">
      <path id="Path_129" data-name="Path 129" d="M0,0H384V-477.756H0Z" fill="none"/>
    </clipPath>
  </defs>
  <g id="Group_145" data-name="Group 145" transform="translate(0 477.756)">
    <path id="Path_125" data-name="Path 125" d="M18.716,0H373.291V-463H18.716Z" fill="#fff"/>
    <g id="Group_144" data-name="Group 144" clip-path="url(#clip-path)">
      <g id="Group_141" data-name="Group 141" transform="translate(292.087 -458.844)">
        <path id="Path_126" data-name="Path 126" d="M0,0H-287.562c-1.111,0-2.823-.35-3.894,0a1.779,1.779,0,0,1-.489,0c-.016.079-.032.158-.047.236V417.48c0,5.642-.213,11.337,0,16.976.009.244,0,.49,0,.735,0,1.565,1.524,3.755,2.23,5.008.41.728,1.59,3.49,2.531,3.49H58.216c1.416,0,3.289.349,4.676,0a2.706,2.706,0,0,1,.59,0l.048-.236V107.367c0-4.544.225-9.161,0-13.7-.01-.2,0-.4,0-.593,0-1.788-1.7-4.122-2.553-5.583-.263-.451-2.256-3.255-2.256-2.679V433.252a6.353,6.353,0,0,1,0,1.595c-.179.556.153.026-.007.107-.656.335-2.253,0-2.958,0h-347.7q2.382,4.249,4.762,8.5V10.391a6.536,6.536,0,0,1,0-1.486c.151-.561-.063-.147-.022-.17.708-.395,2.623,0,3.393,0H4.714c.3,0-1.689-4.35-1.861-4.669C2.425,3.272,1.071,0,0,0"/>
      </g>
      <g id="Group_142" data-name="Group 142" transform="translate(352 -413.756)">
        <path id="Path_127" data-name="Path 127" d="M0,0A32,32,0,0,0,32-32,32,32,0,0,0,0-64,32,32,0,0,0-32-32,32,32,0,0,0,0,0" fill="#2b2e34"/>
      </g>
      <g id="Group_143" data-name="Group 143" transform="translate(353.312 -450.696)">
        <path id="Path_128" data-name="Path 128" d="M0,0C2.521-2.521,4.081-5.761,4.081-8.041a1.988,1.988,0,0,0-2.1-2.22c-3.72,0-7.5,3.3-9.18,8.821C-9-1.44-13.68-3.9-13.68-5.7a3.943,3.943,0,0,1,.359-1.38c1.681-3.9,6.661-9.6,13.442-9.6,5.16,0,10.44,5.641,10.44,10.141,0,4.2-3.84,9.841-9.061,14.161a29.276,29.276,0,0,1,.361,3.6c-.84,1.2-4.681,1.859-6.6,1.859-1.14,0-2.76-5.46-2.76-6.6,0-.9,3.781-2.7,7.5-6.479M5.221,24.9c-.3.96-6.061,4.44-8.161,4.2-.6-.06-3.54-7.14-3.3-7.561.66-1.2,6.661-4.619,7.92-4.2,1.2.421,3.841,6.6,3.541,7.561" fill="#fff"/>
      </g>
    </g>
  </g>
</svg>
