<svg xmlns="http://www.w3.org/2000/svg" xmlns:xlink="http://www.w3.org/1999/xlink" width="64" height="64" viewBox="0 0 64 64">
  <defs>
    <clipPath id="clip-path">
      <path id="Path_159" data-name="Path 159" d="M0,0H64V-64H0Z" fill="none"/>
    </clipPath>
  </defs>
  <g id="Group_176" data-name="Group 176" transform="translate(0 64)">
    <g id="Group_175" data-name="Group 175" clip-path="url(#clip-path)">
      <g id="Group_173" data-name="Group 173" transform="translate(32)">
        <path id="Path_157" data-name="Path 157" d="M0,0A32,32,0,0,0,32-32,32,32,0,0,0,0-64,32,32,0,0,0-32-32,32,32,0,0,0,0,0" fill="#2b2e34"/>
      </g>
      <g id="Group_174" data-name="Group 174" transform="translate(36.364 -16.036)">
        <path id="Path_158" data-name="Path 158" d="M0,0A44.979,44.979,0,0,0-6.851,3.2c-.85.651-3.2-4.55-2.95-5.349S-4.5-5.5-2.75-5.35C-2.25-5.3.449-.1,0,0M-7-13.9c-.55-6.4-.8-14.3.1-19.452,0-1.2.8-1.8,1.649-1.45.6.25,2.3,2.151,3.8,4.051a2.851,2.851,0,0,1,.55,3,91.94,91.94,0,0,0-2.6,15.4.727.727,0,0,1-.8.6c-.9,0-2.05-1.2-2.7-2.15" fill="#fff"/>
      </g>
    </g>
  </g>
</svg>
