<svg xmlns="http://www.w3.org/2000/svg" xmlns:xlink="http://www.w3.org/1999/xlink" width="373.291" height="463" viewBox="0 0 373.291 463">
  <defs>
    <clipPath id="clip-path">
      <path id="Path_154" data-name="Path 154" d="M0,0H373.291V-463H0Z" fill="none"/>
    </clipPath>
  </defs>
  <g id="Group_169" data-name="Group 169" transform="translate(0 463)">
    <path id="Path_152" data-name="Path 152" d="M18.716,0H373.291V-463H18.716Z" fill="#fff"/>
    <g id="Group_168" data-name="Group 168" clip-path="url(#clip-path)">
      <g id="Group_167" data-name="Group 167" transform="translate(292.087 -458.844)">
        <path id="Path_153" data-name="Path 153" d="M0,0H-287.562c-1.111,0-2.823-.35-3.894,0a1.779,1.779,0,0,1-.489,0c-.016.079-.032.158-.047.236V417.48c0,5.642-.213,11.337,0,16.976.009.244,0,.49,0,.735,0,1.565,1.524,3.755,2.23,5.008.41.728,1.59,3.49,2.531,3.49H58.216c1.416,0,3.289.349,4.676,0a2.706,2.706,0,0,1,.59,0l.048-.236V107.367c0-4.544.225-9.161,0-13.7-.01-.2,0-.4,0-.593,0-1.788-1.7-4.122-2.553-5.583-.263-.451-2.256-3.255-2.256-2.679V433.252a6.353,6.353,0,0,1,0,1.595c-.179.556.153.026-.007.107-.656.335-2.253,0-2.958,0h-347.7q2.382,4.249,4.762,8.5V10.391a6.536,6.536,0,0,1,0-1.486c.151-.561-.063-.147-.022-.17.708-.395,2.623,0,3.393,0H4.714c.3,0-1.689-4.35-1.861-4.669C2.425,3.272,1.071,0,0,0"/>
      </g>
    </g>
  </g>
</svg>
