<svg xmlns="http://www.w3.org/2000/svg" xmlns:xlink="http://www.w3.org/1999/xlink" width="513.516" height="484.573" viewBox="0 0 513.516 484.573">
  <defs>
    <clipPath id="clip-path">
      <path id="Path_168" data-name="Path 168" d="M0,0H513.516V-484.573H0Z" fill="none"/>
    </clipPath>
  </defs>
  <g id="Group_186" data-name="Group 186" transform="translate(0 484.573)">
    <g id="Group_185" data-name="Group 185" clip-path="url(#clip-path)">
      <g id="Group_177" data-name="Group 177" transform="translate(242.287)">
        <path id="Path_160" data-name="Path 160" d="M0,0C133.811,0,242.287-108.476,242.287-242.287S133.811-484.573,0-484.573-242.287-376.1-242.287-242.287-133.811,0,0,0" fill="#fff"/>
      </g>
      <g id="Group_178" data-name="Group 178" transform="translate(487.176 -288.432)">
        <path id="Path_161" data-name="Path 161" d="M0,0C-4.185,1.235-8.7.118-12.654-1.391c-1.028-.393-2.02-.881-3.021-1.347A229.379,229.379,0,0,1-11.2,25.928,232.548,232.548,0,0,1-41.381,162.369a226.141,226.141,0,0,1-98.665,90.756,225.375,225.375,0,0,1-31.677,11.845c-.972.28-5.209,1.4-7.339,1.928q-4.359,1.072-8.759,1.978c-5.636,1.158-11.368,2.137-16.807,2.8a228.637,228.637,0,0,1-71.8-2.553c-45.15-8.861-87.014-32.025-119.177-64.818a232.175,232.175,0,0,1-62.871-123.7,231.342,231.342,0,0,1,20.041-139.15,229.527,229.527,0,0,1,38.286-55.72,223.777,223.777,0,0,1,52.807-41.785,214.717,214.717,0,0,1,63.7-23.83,223.828,223.828,0,0,1,70.671-2.888A229.67,229.67,0,0,1-88.4-126.663,232.289,232.289,0,0,1-21.869-25.552a51.05,51.05,0,0,1,9.826-3.025c2.266-.505,4.57-.9,6.887-1.206a235.984,235.984,0,0,0-45.264-81.45,238.37,238.37,0,0,0-119.84-75.255,248.377,248.377,0,0,0-150.682,8.24A248.023,248.023,0,0,0-435.756-88.766a237.127,237.127,0,0,0-42.489,137.2A237.952,237.952,0,0,0-432.2,186.876a238.419,238.419,0,0,0,113.861,83.669c48.549,16.713,101.477,17.014,150.586,2.463A246.322,246.322,0,0,0-47.165,192.47C-16.542,154.6,2.394,107.84,5.751,59.172A239,239,0,0,0,5.4,22.388C4.7,14.532,3.575,6.751,2.125-.948A9.189,9.189,0,0,1,0,0" fill="#2b2e34"/>
      </g>
      <g id="Group_179" data-name="Group 179" transform="translate(500.448 -426.489)">
        <path id="Path_162" data-name="Path 162" d="M0,0A86.783,86.783,0,0,1,3.2,12.159,151.8,151.8,0,0,1,6.231,44.1,156.05,156.05,0,0,1-.843,89.226,162.181,162.181,0,0,1-27.986,140.38c-15.761,20.183-35.743,36.794-57.376,50.348q-4.782,3-9.674,5.808c-.513.3-1.471.972-.928,1.6.5.578,2.227-.262,2.66-.512,23.291-13.433,45.119-29.886,62.778-50.278a169.374,169.374,0,0,0,31.137-52,155.629,155.629,0,0,0,9.436-46.86A156.486,156.486,0,0,0,7.78,13.832c-.637-3.542-1.4-7.063-2.338-10.539C5.053,1.845,4.8-.235,3.992-1.534a1.185,1.185,0,0,1-.074-.21C3.514-2.854-.447-1.228,0,0" fill="#2b2e34"/>
      </g>
      <g id="Group_180" data-name="Group 180" transform="translate(500.448 -426.489)">
        <path id="Path_163" data-name="Path 163" d="M0,0A86.783,86.783,0,0,1,3.2,12.159,151.8,151.8,0,0,1,6.231,44.1,156.05,156.05,0,0,1-.843,89.226,162.181,162.181,0,0,1-27.986,140.38c-15.761,20.183-35.743,36.794-57.376,50.348q-4.782,3-9.674,5.808c-.513.3-1.471.972-.928,1.6.5.578,2.227-.262,2.66-.512,23.291-13.433,45.119-29.886,62.778-50.278a169.374,169.374,0,0,0,31.137-52,155.629,155.629,0,0,0,9.436-46.86A156.486,156.486,0,0,0,7.78,13.832c-.637-3.542-1.4-7.063-2.338-10.539C5.053,1.845,4.8-.235,3.992-1.534a1.185,1.185,0,0,1-.074-.21C3.514-2.854-.447-1.228,0,0Z" fill="none" stroke="#2b2e34" stroke-width="5.718"/>
      </g>
      <g id="Group_181" data-name="Group 181" transform="translate(430.462 -307.119)">
        <path id="Path_164" data-name="Path 164" d="M0,0A63.654,63.654,0,0,1,2.743,18.882,72.74,72.74,0,0,1-8.8,59.833a82.957,82.957,0,0,1-24.454,23.8c-.494.321-1.485.955-.928,1.6.488.563,2.246-.242,2.66-.512,16.1-10.493,29.253-25.163,34.981-43.761A77.034,77.034,0,0,0,5.543,5.194,48.4,48.4,0,0,0,3.918-1.745C3.552-2.842-.419-1.257,0,0" fill="#2b2e34"/>
      </g>
      <g id="Group_182" data-name="Group 182" transform="translate(430.462 -307.119)">
        <path id="Path_165" data-name="Path 165" d="M0,0A63.654,63.654,0,0,1,2.743,18.882,72.74,72.74,0,0,1-8.8,59.833a82.957,82.957,0,0,1-24.454,23.8c-.494.321-1.485.955-.928,1.6.488.563,2.246-.242,2.66-.512,16.1-10.493,29.253-25.163,34.981-43.761A77.034,77.034,0,0,0,5.543,5.194,48.4,48.4,0,0,0,3.918-1.745C3.552-2.842-.419-1.257,0,0Z" fill="none" stroke="#2b2e34" stroke-width="5.718"/>
      </g>
      <g id="Group_183" data-name="Group 183" transform="translate(459.954 -228.459)">
        <path id="Path_166" data-name="Path 166" d="M0,0A41.393,41.393,0,0,0-11.567-5.957a47.563,47.563,0,0,0-28.4-1.065A58.68,58.68,0,0,0-59.939,3.151c-.545.413-1.025,1.074-.213,1.413.791.33,2.215-.456,2.808-.905,8.94-6.774,19.578-10.82,30.9-9.9A46.736,46.736,0,0,1-6.933-.073,29.043,29.043,0,0,1-3.588,2.11C-2.609,2.875,1.025.8,0,0" fill="#2b2e34"/>
      </g>
      <g id="Group_184" data-name="Group 184" transform="translate(459.954 -228.459)">
        <path id="Path_167" data-name="Path 167" d="M0,0A41.393,41.393,0,0,0-11.567-5.957a47.563,47.563,0,0,0-28.4-1.065A58.68,58.68,0,0,0-59.939,3.151c-.545.413-1.025,1.074-.213,1.413.791.33,2.215-.456,2.808-.905,8.94-6.774,19.578-10.82,30.9-9.9A46.736,46.736,0,0,1-6.933-.073,29.043,29.043,0,0,1-3.588,2.11C-2.609,2.875,1.025.8,0,0Z" fill="none" stroke="#2b2e34" stroke-width="5.718"/>
      </g>
    </g>
  </g>
</svg>
